<svg width="380" height="50" viewBox="0 0 380 50" fill="none" xmlns="http://www.w3.org/2000/svg">
<path d="M12.5 35.4163L22.9167 24.9996L12.5 14.5829" stroke="#FF66C4" stroke-width="3" stroke-linecap="round" stroke-linejoin="round"/>
<path d="M27.083 35.4172L37.4997 25.0006L27.083 14.5839" stroke="#FF66C4" stroke-width="3" stroke-linecap="round" stroke-linejoin="round"/>
<path d="M42.5 35.4163L52.9167 24.9996L42.5 14.5829" stroke="#3B48D9" stroke-width="3" stroke-linecap="round" stroke-linejoin="round"/>
<path d="M57.083 35.4172L67.4997 25.0006L57.083 14.5839" stroke="#3B48D9" stroke-width="3" stroke-linecap="round" stroke-linejoin="round"/>
<path d="M72.5 35.4163L82.9167 24.9996L72.5 14.5829" stroke="#FF66C4" stroke-width="3" stroke-linecap="round" stroke-linejoin="round"/>
<path d="M87.083 35.4172L97.4997 25.0006L87.083 14.5839" stroke="#FF66C4" stroke-width="3" stroke-linecap="round" stroke-linejoin="round"/>
<path d="M102.5 35.4163L112.917 24.9996L102.5 14.5829" stroke="#3B48D9" stroke-width="3" stroke-linecap="round" stroke-linejoin="round"/>
<path d="M117.083 35.4172L127.5 25.0006L117.083 14.5839" stroke="#3B48D9" stroke-width="3" stroke-linecap="round" stroke-linejoin="round"/>
<path d="M132.5 35.4163L142.917 24.9996L132.5 14.5829" stroke="#FF66C4" stroke-width="3" stroke-linecap="round" stroke-linejoin="round"/>
<path d="M147.083 35.4172L157.5 25.0006L147.083 14.5839" stroke="#FF66C4" stroke-width="3" stroke-linecap="round" stroke-linejoin="round"/>
<path d="M162.5 35.4163L172.917 24.9996L162.5 14.5829" stroke="#3B48D9" stroke-width="3" stroke-linecap="round" stroke-linejoin="round"/>
<path d="M177.083 35.4172L187.5 25.0006L177.083 14.5839" stroke="#3B48D9" stroke-width="3" stroke-linecap="round" stroke-linejoin="round"/>
<path d="M192.5 35.4163L202.917 24.9996L192.5 14.5829" stroke="#FF66C4" stroke-width="3" stroke-linecap="round" stroke-linejoin="round"/>
<path d="M207.083 35.4172L217.5 25.0006L207.083 14.5839" stroke="#FF66C4" stroke-width="3" stroke-linecap="round" stroke-linejoin="round"/>
<path d="M222.5 35.4163L232.917 24.9996L222.5 14.5829" stroke="#3B48D9" stroke-width="3" stroke-linecap="round" stroke-linejoin="round"/>
<path d="M237.083 35.4172L247.5 25.0006L237.083 14.5839" stroke="#3B48D9" stroke-width="3" stroke-linecap="round" stroke-linejoin="round"/>
<path d="M252.5 35.4163L262.917 24.9996L252.5 14.5829" stroke="#FF66C4" stroke-width="3" stroke-linecap="round" stroke-linejoin="round"/>
<path d="M267.083 35.4172L277.5 25.0006L267.083 14.5839" stroke="#FF66C4" stroke-width="3" stroke-linecap="round" stroke-linejoin="round"/>
<path d="M282.5 35.4163L292.917 24.9996L282.5 14.5829" stroke="#3B48D9" stroke-width="3" stroke-linecap="round" stroke-linejoin="round"/>
<path d="M297.083 35.4172L307.5 25.0006L297.083 14.5839" stroke="#3B48D9" stroke-width="3" stroke-linecap="round" stroke-linejoin="round"/>
<path d="M312.5 35.4163L322.917 24.9996L312.5 14.5829" stroke="#FF66C4" stroke-width="3" stroke-linecap="round" stroke-linejoin="round"/>
<path d="M327.083 35.4172L337.5 25.0006L327.083 14.5839" stroke="#FF66C4" stroke-width="3" stroke-linecap="round" stroke-linejoin="round"/>
<path d="M342.5 35.4163L352.917 24.9996L342.5 14.5829" stroke="#3B48D9" stroke-width="3" stroke-linecap="round" stroke-linejoin="round"/>
<path d="M357.083 35.4172L367.5 25.0006L357.083 14.5839" stroke="#3B48D9" stroke-width="3" stroke-linecap="round" stroke-linejoin="round"/>
</svg>
