<svg width="16" height="16" viewBox="0 0 16 16" fill="none" xmlns="http://www.w3.org/2000/svg">
<path d="M12 5.33332V3.99999C12 3.64637 11.8596 3.30723 11.6095 3.05718C11.3595 2.80713 11.0203 2.66666 10.6667 2.66666H2.66671C2.31309 2.66666 1.97395 2.80713 1.7239 3.05718C1.47385 3.30723 1.33337 3.64637 1.33337 3.99999V8.66666C1.33337 9.02028 1.47385 9.35942 1.7239 9.60947C1.97395 9.85951 2.31309 9.99999 2.66671 9.99999H8.00004" stroke="#18181B" stroke-width="1.5" stroke-linecap="round" stroke-linejoin="round"/>
<path d="M6.66663 12.6667V10.0267V12.1267" stroke="#18181B" stroke-width="1.5" stroke-linecap="round" stroke-linejoin="round"/>
<path d="M4.66663 12.6667H7.99996" stroke="#18181B" stroke-width="1.5" stroke-linecap="round" stroke-linejoin="round"/>
<path d="M13.3333 8H12C11.2636 8 10.6666 8.59695 10.6666 9.33333V13.3333C10.6666 14.0697 11.2636 14.6667 12 14.6667H13.3333C14.0697 14.6667 14.6666 14.0697 14.6666 13.3333V9.33333C14.6666 8.59695 14.0697 8 13.3333 8Z" stroke="#18181B" stroke-width="1.5" stroke-linecap="round" stroke-linejoin="round"/>
</svg>
