<svg width="135" height="135" viewBox="0 0 135 135" fill="none" xmlns="http://www.w3.org/2000/svg">
<path d="M41.1584 45.3473C40.736 37.0668 49.2785 31.3135 56.7929 34.8176L64.0633 38.2078C66.7628 39.4666 69.8575 39.5768 72.6398 38.5133L80.133 35.6489C87.8776 32.6884 95.9891 39.0349 94.9787 47.2643L94.0011 55.2265C93.6381 58.1829 94.4895 61.1602 96.3608 63.4777L101.401 69.7189C106.609 76.1697 103.08 85.8454 94.9412 87.4274L87.0666 88.9581C84.1427 89.5264 81.5742 91.2563 79.9485 93.7521L75.57 100.474C71.0446 107.421 60.7519 107.055 56.7322 99.8028L52.8431 92.7867C51.399 90.1815 48.9601 88.2733 46.0841 87.4984L38.3383 85.4113C30.3326 83.2542 27.5006 73.352 33.1553 67.2881L38.6262 61.4212C40.6577 59.2428 41.7188 56.3337 41.5671 53.3589L41.1584 45.3473Z" fill="#4CE0B3"/>
<path d="M81.0435 66.152L60.6755 67.562" stroke="white" stroke-width="3" stroke-linecap="round" stroke-linejoin="round"/>
<path d="M71.5643 77.0406L60.6753 67.5617L70.1543 56.6727" stroke="white" stroke-width="3" stroke-linecap="round" stroke-linejoin="round"/>
<path d="M51.9464 68.1658C52.002 68.9693 52.6985 69.5756 53.5019 69.5199C54.3054 69.4643 54.9117 68.7679 54.8561 67.9644C54.8005 67.1609 54.104 66.5546 53.3005 66.6102C52.497 66.6659 51.8908 67.3623 51.9464 68.1658Z" stroke="white" stroke-width="3" stroke-linecap="round" stroke-linejoin="round"/>
</svg>
