<svg width="1440" height="426" viewBox="0 0 1440 426" fill="none" xmlns="http://www.w3.org/2000/svg">
<path d="M0 27.1504H1440M0 67.875H1440M0 108.601H1439.35M0 149.326H1440M0 190.052H1439.35M0 230.778H1440M0 271.502H1439.35M0 312.227H1440M0 352.952H1439.35M0 393.678H1440M30.0681 0V426M75.824 0V426M121.58 0V426M167.335 0V426M213.091 0V426M258.847 0V426M304.603 0V426M350.359 0V426M396.114 0V426M441.87 0V426M487.626 0V426M533.382 0V426M579.138 0V426M624.893 0V426M670.649 0V426M716.405 0V426M762.161 0V426M807.916 0V426M853.672 0V426M899.428 0V426M945.184 0V426M990.94 0V426M1036.7 0V426M1082.45 0V426M1128.21 0V426M1173.96 0V426M1219.72 0V426M1265.47 0V426M1311.23 0V426M1356.99 0V426M1402.74 0V426" stroke="url(#paint0_linear_2002_14131)" stroke-width="1.75"/>
<defs>
<linearGradient id="paint0_linear_2002_14131" x1="720" y1="0" x2="720" y2="570" gradientUnits="userSpaceOnUse">
<stop offset="0.377883" stop-color="white"/>
<stop offset="0.726798" stop-color="white" stop-opacity="0"/>
</linearGradient>
</defs>
</svg>
