<svg width="93" height="92" viewBox="0 0 93 92" fill="none" xmlns="http://www.w3.org/2000/svg">
<g filter="url(#filter0_d_2002_11777)">
<rect x="24.5" y="16" width="44" height="44" rx="4" fill="#8A95FF" shape-rendering="crispEdges"/>
<path d="M49 30H44L41.5 33H38.5C37.9696 33 37.4609 33.2107 37.0858 33.5858C36.7107 33.9609 36.5 34.4696 36.5 35V44C36.5 44.5304 36.7107 45.0391 37.0858 45.4142C37.4609 45.7893 37.9696 46 38.5 46H54.5C55.0304 46 55.5391 45.7893 55.9142 45.4142C56.2893 45.0391 56.5 44.5304 56.5 44V35C56.5 34.4696 56.2893 33.9609 55.9142 33.5858C55.5391 33.2107 55.0304 33 54.5 33H51.5L49 30Z" stroke="white" stroke-width="2" stroke-linecap="round" stroke-linejoin="round"/>
<path d="M46.5 42C48.1569 42 49.5 40.6569 49.5 39C49.5 37.3431 48.1569 36 46.5 36C44.8431 36 43.5 37.3431 43.5 39C43.5 40.6569 44.8431 42 46.5 42Z" stroke="white" stroke-width="2" stroke-linecap="round" stroke-linejoin="round"/>
</g>
<defs>
<filter id="filter0_d_2002_11777" x="0.5" y="0" width="92" height="92" filterUnits="userSpaceOnUse" color-interpolation-filters="sRGB">
<feFlood flood-opacity="0" result="BackgroundImageFix"/>
<feColorMatrix in="SourceAlpha" type="matrix" values="0 0 0 0 0 0 0 0 0 0 0 0 0 0 0 0 0 0 127 0" result="hardAlpha"/>
<feMorphology radius="8" operator="erode" in="SourceAlpha" result="effect1_dropShadow_2002_11777"/>
<feOffset dy="8"/>
<feGaussianBlur stdDeviation="16"/>
<feComposite in2="hardAlpha" operator="out"/>
<feColorMatrix type="matrix" values="0 0 0 0 0.184314 0 0 0 0 0.109804 0 0 0 0 0.415686 0 0 0 0.4 0"/>
<feBlend mode="normal" in2="BackgroundImageFix" result="effect1_dropShadow_2002_11777"/>
<feBlend mode="normal" in="SourceGraphic" in2="effect1_dropShadow_2002_11777" result="shape"/>
</filter>
</defs>
</svg>
