<svg width="45" height="48" viewBox="0 0 45 48" fill="none" xmlns="http://www.w3.org/2000/svg">
<rect width="45" height="48" rx="22.5" fill="#4CE0B3"/>
<path d="M30.5 22C30.5 26.993 24.961 32.193 23.101 33.799C22.9277 33.9293 22.7168 33.9998 22.5 33.9998C22.2832 33.9998 22.0723 33.9293 21.899 33.799C20.039 32.193 14.5 26.993 14.5 22C14.5 19.8783 15.3429 17.8434 16.8431 16.3431C18.3434 14.8429 20.3783 14 22.5 14C24.6217 14 26.6566 14.8429 28.1569 16.3431C29.6571 17.8434 30.5 19.8783 30.5 22Z" stroke="white" stroke-width="2" stroke-linecap="round" stroke-linejoin="round"/>
<path d="M22.5 25C24.1569 25 25.5 23.6569 25.5 22C25.5 20.3431 24.1569 19 22.5 19C20.8431 19 19.5 20.3431 19.5 22C19.5 23.6569 20.8431 25 22.5 25Z" stroke="white" stroke-width="2" stroke-linecap="round" stroke-linejoin="round"/>
</svg>
