<svg width="93" height="92" viewBox="0 0 93 92" fill="none" xmlns="http://www.w3.org/2000/svg">
<g filter="url(#filter0_d_2002_11821)">
<rect x="24.5" y="16" width="44" height="44" rx="4" fill="#8A95FF" shape-rendering="crispEdges"/>
<path d="M42.4 46C44.3086 46.9791 46.5041 47.2443 48.5909 46.7478C50.6777 46.2514 52.5186 45.0259 53.7818 43.2922C55.045 41.5586 55.6474 39.4308 55.4806 37.2922C55.3137 35.1537 54.3886 33.145 52.8718 31.6282C51.355 30.1115 49.3464 29.1863 47.2078 29.0195C45.0693 28.8526 42.9415 29.4551 41.2078 30.7183C39.4742 31.9815 38.2487 33.8224 37.7522 35.9092C37.2558 37.996 37.5209 40.1915 38.5 42.1L36.5 48L42.4 46Z" stroke="white" stroke-width="2" stroke-linecap="round" stroke-linejoin="round"/>
<path d="M42.5 38H42.51" stroke="white" stroke-width="2" stroke-linecap="round" stroke-linejoin="round"/>
<path d="M46.5 38H46.51" stroke="white" stroke-width="2" stroke-linecap="round" stroke-linejoin="round"/>
<path d="M50.5 38H50.51" stroke="white" stroke-width="2" stroke-linecap="round" stroke-linejoin="round"/>
</g>
<defs>
<filter id="filter0_d_2002_11821" x="0.5" y="0" width="92" height="92" filterUnits="userSpaceOnUse" color-interpolation-filters="sRGB">
<feFlood flood-opacity="0" result="BackgroundImageFix"/>
<feColorMatrix in="SourceAlpha" type="matrix" values="0 0 0 0 0 0 0 0 0 0 0 0 0 0 0 0 0 0 127 0" result="hardAlpha"/>
<feMorphology radius="8" operator="erode" in="SourceAlpha" result="effect1_dropShadow_2002_11821"/>
<feOffset dy="8"/>
<feGaussianBlur stdDeviation="16"/>
<feComposite in2="hardAlpha" operator="out"/>
<feColorMatrix type="matrix" values="0 0 0 0 0.184314 0 0 0 0 0.109804 0 0 0 0 0.415686 0 0 0 0.4 0"/>
<feBlend mode="normal" in2="BackgroundImageFix" result="effect1_dropShadow_2002_11821"/>
<feBlend mode="normal" in="SourceGraphic" in2="effect1_dropShadow_2002_11821" result="shape"/>
</filter>
</defs>
</svg>
