<svg width="44" height="44" viewBox="0 0 44 44" fill="none" xmlns="http://www.w3.org/2000/svg">
<rect width="44" height="44" rx="4" fill="#E19D00"/>
<path d="M25 23C25 22.2044 24.6839 21.4413 24.1213 20.8787C23.5587 20.3161 22.7956 20 22 20C21.2044 20 20.4413 20.3161 19.8787 20.8787C19.3161 21.4413 19 22.2044 19 23" stroke="white" stroke-width="2" stroke-linecap="round" stroke-linejoin="round"/>
<path d="M14 29.5V14.5C14 13.837 14.2634 13.2011 14.7322 12.7322C15.2011 12.2634 15.837 12 16.5 12H29C29.2652 12 29.5196 12.1054 29.7071 12.2929C29.8946 12.4804 30 12.7348 30 13V31C30 31.2652 29.8946 31.5196 29.7071 31.7071C29.5196 31.8946 29.2652 32 29 32H16.5C15.837 32 15.2011 31.7366 14.7322 31.2678C14.2634 30.7989 14 30.163 14 29.5ZM14 29.5C14 28.837 14.2634 28.2011 14.7322 27.7322C15.2011 27.2634 15.837 27 16.5 27H30" stroke="white" stroke-width="2" stroke-linecap="round" stroke-linejoin="round"/>
<path d="M22 20C23.1046 20 24 19.1046 24 18C24 16.8954 23.1046 16 22 16C20.8954 16 20 16.8954 20 18C20 19.1046 20.8954 20 22 20Z" stroke="white" stroke-width="2" stroke-linecap="round" stroke-linejoin="round"/>
</svg>
