<svg width="93" height="92" viewBox="0 0 93 92" fill="none" xmlns="http://www.w3.org/2000/svg">
<g filter="url(#filter0_d_2002_11784)">
<rect x="24.5" y="16" width="44" height="44" rx="4" fill="#8A95FF" shape-rendering="crispEdges"/>
<path d="M44.5 28V30" stroke="white" stroke-width="2" stroke-linecap="round" stroke-linejoin="round"/>
<path d="M48.5 28V32" stroke="white" stroke-width="2" stroke-linecap="round" stroke-linejoin="round"/>
<path d="M51.5 28C51.7652 28 52.0196 28.1054 52.2071 28.2929C52.3946 28.4804 52.5 28.7348 52.5 29V38H40.5V29C40.5 28.7348 40.6054 28.4804 40.7929 28.2929C40.9804 28.1054 41.2348 28 41.5 28H51.5Z" stroke="white" stroke-width="2" stroke-linecap="round" stroke-linejoin="round"/>
<path d="M40.5 38C40.2348 38 39.9804 38.1054 39.7929 38.2929C39.6054 38.4804 39.5 38.7348 39.5 39V40C39.5 40.5304 39.7107 41.0391 40.0858 41.4142C40.4609 41.7893 40.9696 42 41.5 42H43.5C43.7652 42 44.0196 42.1054 44.2071 42.2929C44.3946 42.4804 44.5 42.7348 44.5 43V45.9C44.5 46.4304 44.7107 46.9391 45.0858 47.3142C45.4609 47.6893 45.9696 47.9 46.5 47.9C47.0304 47.9 47.5391 47.6893 47.9142 47.3142C48.2893 46.9391 48.5 46.4304 48.5 45.9V43C48.5 42.7348 48.6054 42.4804 48.7929 42.2929C48.9804 42.1054 49.2348 42 49.5 42H51.5C52.0304 42 52.5391 41.7893 52.9142 41.4142C53.2893 41.0391 53.5 40.5304 53.5 40V39C53.5 38.7348 53.3946 38.4804 53.2071 38.2929C53.0196 38.1054 52.7652 38 52.5 38" stroke="white" stroke-width="2" stroke-linecap="round" stroke-linejoin="round"/>
</g>
<defs>
<filter id="filter0_d_2002_11784" x="0.5" y="0" width="92" height="92" filterUnits="userSpaceOnUse" color-interpolation-filters="sRGB">
<feFlood flood-opacity="0" result="BackgroundImageFix"/>
<feColorMatrix in="SourceAlpha" type="matrix" values="0 0 0 0 0 0 0 0 0 0 0 0 0 0 0 0 0 0 127 0" result="hardAlpha"/>
<feMorphology radius="8" operator="erode" in="SourceAlpha" result="effect1_dropShadow_2002_11784"/>
<feOffset dy="8"/>
<feGaussianBlur stdDeviation="16"/>
<feComposite in2="hardAlpha" operator="out"/>
<feColorMatrix type="matrix" values="0 0 0 0 0.184314 0 0 0 0 0.109804 0 0 0 0 0.415686 0 0 0 0.4 0"/>
<feBlend mode="normal" in2="BackgroundImageFix" result="effect1_dropShadow_2002_11784"/>
<feBlend mode="normal" in="SourceGraphic" in2="effect1_dropShadow_2002_11784" result="shape"/>
</filter>
</defs>
</svg>
