<svg width="93" height="92" viewBox="0 0 93 92" fill="none" xmlns="http://www.w3.org/2000/svg">
<g filter="url(#filter0_d_2002_11793)">
<rect x="24.5" y="16" width="44" height="44" rx="4" fill="#8A95FF" shape-rendering="crispEdges"/>
<path d="M41.5 29H38.5C37.9477 29 37.5 29.4477 37.5 30V33C37.5 33.5523 37.9477 34 38.5 34H41.5C42.0523 34 42.5 33.5523 42.5 33V30C42.5 29.4477 42.0523 29 41.5 29Z" stroke="white" stroke-width="2" stroke-linecap="round" stroke-linejoin="round"/>
<path d="M54.5 29H51.5C50.9477 29 50.5 29.4477 50.5 30V33C50.5 33.5523 50.9477 34 51.5 34H54.5C55.0523 34 55.5 33.5523 55.5 33V30C55.5 29.4477 55.0523 29 54.5 29Z" stroke="white" stroke-width="2" stroke-linecap="round" stroke-linejoin="round"/>
<path d="M41.5 42H38.5C37.9477 42 37.5 42.4477 37.5 43V46C37.5 46.5523 37.9477 47 38.5 47H41.5C42.0523 47 42.5 46.5523 42.5 46V43C42.5 42.4477 42.0523 42 41.5 42Z" stroke="white" stroke-width="2" stroke-linecap="round" stroke-linejoin="round"/>
<path d="M55.5 42H52.5C51.9696 42 51.4609 42.2107 51.0858 42.5858C50.7107 42.9609 50.5 43.4696 50.5 44V47" stroke="white" stroke-width="2" stroke-linecap="round" stroke-linejoin="round"/>
<path d="M55.5 47V47.01" stroke="white" stroke-width="2" stroke-linecap="round" stroke-linejoin="round"/>
<path d="M46.5 33V36C46.5 36.5304 46.2893 37.0391 45.9142 37.4142C45.5391 37.7893 45.0304 38 44.5 38H41.5" stroke="white" stroke-width="2" stroke-linecap="round" stroke-linejoin="round"/>
<path d="M37.5 38H37.51" stroke="white" stroke-width="2" stroke-linecap="round" stroke-linejoin="round"/>
<path d="M46.5 29H46.51" stroke="white" stroke-width="2" stroke-linecap="round" stroke-linejoin="round"/>
<path d="M46.5 42V42.01" stroke="white" stroke-width="2" stroke-linecap="round" stroke-linejoin="round"/>
<path d="M50.5 38H51.5" stroke="white" stroke-width="2" stroke-linecap="round" stroke-linejoin="round"/>
<path d="M55.5 38V38.01" stroke="white" stroke-width="2" stroke-linecap="round" stroke-linejoin="round"/>
<path d="M46.5 47V46" stroke="white" stroke-width="2" stroke-linecap="round" stroke-linejoin="round"/>
</g>
<defs>
<filter id="filter0_d_2002_11793" x="0.5" y="0" width="92" height="92" filterUnits="userSpaceOnUse" color-interpolation-filters="sRGB">
<feFlood flood-opacity="0" result="BackgroundImageFix"/>
<feColorMatrix in="SourceAlpha" type="matrix" values="0 0 0 0 0 0 0 0 0 0 0 0 0 0 0 0 0 0 127 0" result="hardAlpha"/>
<feMorphology radius="8" operator="erode" in="SourceAlpha" result="effect1_dropShadow_2002_11793"/>
<feOffset dy="8"/>
<feGaussianBlur stdDeviation="16"/>
<feComposite in2="hardAlpha" operator="out"/>
<feColorMatrix type="matrix" values="0 0 0 0 0.184314 0 0 0 0 0.109804 0 0 0 0 0.415686 0 0 0 0.4 0"/>
<feBlend mode="normal" in2="BackgroundImageFix" result="effect1_dropShadow_2002_11793"/>
<feBlend mode="normal" in="SourceGraphic" in2="effect1_dropShadow_2002_11793" result="shape"/>
</filter>
</defs>
</svg>
