<svg width="45" height="48" viewBox="0 0 45 48" fill="none" xmlns="http://www.w3.org/2000/svg">
<rect width="45" height="48" rx="22.5" fill="#FFD166"/>
<path d="M32.5001 28.9201V31.9201C32.5012 32.1986 32.4441 32.4743 32.3326 32.7294C32.221 32.9846 32.0574 33.2137 31.8521 33.402C31.6469 33.5902 31.4046 33.7336 31.1408 33.8228C30.877 33.912 30.5974 33.9452 30.3201 33.9201C27.2429 33.5857 24.2871 32.5342 21.6901 30.8501C19.2739 29.3148 17.2254 27.2663 15.6901 24.8501C14 22.2413 12.9483 19.2711 12.6201 16.1801C12.5951 15.9036 12.6279 15.6249 12.7166 15.3617C12.8052 15.0986 12.9476 14.8568 13.1348 14.6517C13.322 14.4466 13.5499 14.2828 13.8038 14.1706C14.0578 14.0584 14.3324 14.0004 14.6101 14.0001H17.6101C18.0954 13.9953 18.5658 14.1672 18.9338 14.4836C19.3018 14.8001 19.5421 15.2395 19.6101 15.7201C19.7367 16.6802 19.9715 17.6228 20.3101 18.5301C20.4446 18.888 20.4737 19.277 20.394 19.651C20.3142 20.0249 20.1289 20.3682 19.8601 20.6401L18.5901 21.9101C20.0136 24.4136 22.0865 26.4865 24.5901 27.9101L25.8601 26.6401C26.1319 26.3712 26.4752 26.1859 26.8492 26.1062C27.2231 26.0264 27.6121 26.0556 27.9701 26.1901C28.8773 26.5286 29.82 26.7635 30.7801 26.8901C31.2658 26.9586 31.7095 27.2033 32.0266 27.5776C32.3437 27.9519 32.5122 28.4297 32.5001 28.9201Z" stroke="white" stroke-width="2" stroke-linecap="round" stroke-linejoin="round"/>
</svg>
