<svg width="16" height="16" viewBox="0 0 16 16" fill="none" xmlns="http://www.w3.org/2000/svg">
<g clip-path="url(#clip0_2140_2570)">
<path d="M9.99996 12H6.66663" stroke="#71717A" stroke-width="1.5" stroke-linecap="round" stroke-linejoin="round"/>
<path d="M12 9.33331H6.66663" stroke="#71717A" stroke-width="1.5" stroke-linecap="round" stroke-linejoin="round"/>
<path d="M2.66671 14.6666H13.3334C13.687 14.6666 14.0261 14.5262 14.2762 14.2761C14.5262 14.0261 14.6667 13.6869 14.6667 13.3333V2.66665C14.6667 2.31302 14.5262 1.97389 14.2762 1.72384C14.0261 1.47379 13.687 1.33331 13.3334 1.33331H5.33337C4.97975 1.33331 4.64061 1.47379 4.39056 1.72384C4.14052 1.97389 4.00004 2.31302 4.00004 2.66665V13.3333C4.00004 13.6869 3.85956 14.0261 3.60952 14.2761C3.35947 14.5262 3.02033 14.6666 2.66671 14.6666ZM2.66671 14.6666C2.31309 14.6666 1.97395 14.5262 1.7239 14.2761C1.47385 14.0261 1.33337 13.6869 1.33337 13.3333V7.33331C1.33337 6.97969 1.47385 6.64055 1.7239 6.3905C1.97395 6.14046 2.31309 5.99998 2.66671 5.99998H4.00004" stroke="#71717A" stroke-width="1.5" stroke-linecap="round" stroke-linejoin="round"/>
<path d="M11.3333 4H7.33329C6.9651 4 6.66663 4.29848 6.66663 4.66667V6C6.66663 6.36819 6.9651 6.66667 7.33329 6.66667H11.3333C11.7015 6.66667 12 6.36819 12 6V4.66667C12 4.29848 11.7015 4 11.3333 4Z" stroke="#71717A" stroke-width="1.5" stroke-linecap="round" stroke-linejoin="round"/>
</g>
<defs>
<clipPath id="clip0_2140_2570">
<rect width="16" height="16" fill="white"/>
</clipPath>
</defs>
</svg>
