<svg width="1440" height="1065" viewBox="0 0 1440 1065" fill="none" xmlns="http://www.w3.org/2000/svg">
<g opacity="0.5" filter="url(#filter0_f_4173_185)">
<path d="M1107.66 666.667C971.015 530.021 978.034 301.456 1123.34 156.152C1268.64 10.8486 1328.76 172.279 1465.4 308.924C1602.05 445.57 1763.48 505.686 1618.18 650.99C1472.87 796.294 1244.31 803.313 1107.66 666.667Z" fill="url(#paint0_linear_4173_185)"/>
</g>
<g opacity="0.5" filter="url(#filter1_f_4173_185)">
<path d="M286.127 163.777C422.773 300.423 415.754 528.988 270.45 674.292C125.146 819.596 65.0302 658.166 -71.6154 521.52C-208.261 384.874 -369.691 324.758 -224.387 179.454C-79.0834 34.1503 149.482 27.1315 286.127 163.777Z" fill="url(#paint1_linear_4173_185)"/>
</g>
<defs>
<filter id="filter0_f_4173_185" x="709.597" y="-201.037" width="1265.77" height="1265.77" filterUnits="userSpaceOnUse" color-interpolation-filters="sRGB">
<feFlood flood-opacity="0" result="BackgroundImageFix"/>
<feBlend mode="normal" in="SourceGraphic" in2="BackgroundImageFix" result="shape"/>
<feGaussianBlur stdDeviation="150" result="effect1_foregroundBlur_4173_185"/>
</filter>
<filter id="filter1_f_4173_185" x="-581.577" y="-234.287" width="1265.77" height="1265.77" filterUnits="userSpaceOnUse" color-interpolation-filters="sRGB">
<feFlood flood-opacity="0" result="BackgroundImageFix"/>
<feBlend mode="normal" in="SourceGraphic" in2="BackgroundImageFix" result="shape"/>
<feGaussianBlur stdDeviation="150" result="effect1_foregroundBlur_4173_185"/>
</filter>
<linearGradient id="paint0_linear_4173_185" x1="2379.96" y1="1206.38" x2="1633.06" y2="1668.45" gradientUnits="userSpaceOnUse">
<stop stop-color="#F5F7FD"/>
<stop offset="0.507415" stop-color="#8BA2FD"/>
<stop offset="0.803048" stop-color="#93FFDE"/>
</linearGradient>
<linearGradient id="paint1_linear_4173_185" x1="-986.172" y1="-375.938" x2="-239.27" y2="-838.007" gradientUnits="userSpaceOnUse">
<stop stop-color="#F5F7FD"/>
<stop offset="0.466346" stop-color="#FFADDF"/>
<stop offset="0.860577" stop-color="#FFE5A8"/>
</linearGradient>
</defs>
</svg>
