<svg width="161" height="74" viewBox="0 0 161 74" fill="none" xmlns="http://www.w3.org/2000/svg">
<g clip-path="url(#clip0_2002_11663)">
<path d="M88.0504 11.8316C91.3628 7.27698 95.635 4.41506 101.249 3.78683C104.762 3.32662 108.328 3.96867 111.48 5.62866C114.631 7.28865 117.22 9.88896 118.907 13.0881C119.069 13.3529 119.247 13.6065 119.442 13.8472C120.975 11.0963 123.092 8.73631 125.636 6.94304C128.18 5.14976 131.085 3.96948 134.135 3.49016C139.501 2.37738 145.073 3.11023 149.992 5.57553C158.019 9.71137 162.121 18.7858 160.728 29.5791H130.237C130.517 34.1163 132.513 36.9433 136.021 38.0165C139.529 39.0897 142.739 38.0165 145.185 34.8405C145.553 34.3681 146.081 34.0563 146.663 33.9679C150.961 33.8981 155.267 33.9679 159.913 33.9679C158.358 40.3026 154.817 44.8659 149.313 47.3178C139.342 51.7328 130.084 50.328 121.812 42.5101C120.222 46.7729 117.125 50.2627 113.14 52.2825C105.64 56.2526 94.9725 54.9961 88.8063 49.1239C87.677 47.8249 86.665 46.423 85.7827 44.9357L85.995 44.674L86.2499 44.3599L86.734 43.7578L87.2181 43.1558C87.3285 43.0074 87.4559 42.8678 87.5663 42.7108C87.6767 42.5537 87.6173 42.6148 87.6512 42.5799C87.7174 42.5336 87.7887 42.4955 87.8636 42.4665L88.9422 41.9255L89.2395 41.7684C90.0888 41.3409 90.8787 40.8959 91.6941 40.4073C92.1018 40.1717 92.5434 39.9448 92.9171 39.6918C93.1597 39.503 93.4643 39.4185 93.7665 39.4562C94.2166 39.5173 94.5394 39.4562 94.8196 39.6918C95.7369 40.4509 96.5778 41.1228 97.5545 41.8033C98.0401 42.1465 98.5579 42.4388 99.1003 42.6759C99.2161 42.7256 99.3353 42.7664 99.457 42.798C99.6994 42.8839 99.9461 42.9568 100.196 43.0162C100.451 43.0772 100.706 43.1209 100.96 43.1645C101.215 43.2081 101.478 43.2343 101.733 43.2518C101.988 43.2692 102.26 43.2518 102.515 43.2518C102.769 43.2518 103.033 43.2518 103.296 43.2081C103.559 43.1645 103.806 43.147 104.052 43.1034C104.301 43.0625 104.548 43.0072 104.791 42.9376C105.029 42.8766 105.266 42.798 105.496 42.7195C105.725 42.641 105.946 42.5363 106.158 42.4316C106.371 42.3269 106.574 42.2134 106.778 42.0913C106.97 41.9684 107.154 41.8343 107.33 41.6899C107.502 41.5503 107.664 41.3987 107.814 41.2362C107.899 41.1402 107.984 41.0442 108.061 40.9395C109.454 39.1246 109.284 37.5541 107.313 36.4634C105.863 35.7538 104.357 35.1701 102.812 34.7183C99.3041 33.5317 95.7794 32.3886 92.2716 31.2282C93.0373 24.4585 91.5495 17.6218 88.0504 11.8316ZM118.057 16.142C115.883 16.8836 113.615 17.6166 111.382 18.4455C110.845 18.6427 110.65 18.7996 110.014 18.6432C109.638 18.5506 109.295 18.2824 108.927 17.7562C107.449 15.6359 105.224 14.9379 102.761 15.2084C101.87 15.2827 101.03 15.6619 100.374 16.2852C99.7178 16.9084 99.2843 17.7398 99.1428 18.6462C98.7181 20.5745 99.7628 21.8571 101.419 22.5551C102.447 22.9827 103.576 23.1397 104.646 23.4277C108.044 24.4922 111.458 25.5712 114.889 26.6648C115.384 26.8506 115.869 27.0632 116.342 27.3017C116.28 23.5078 116.861 19.7317 118.057 16.142ZM147.079 21.9095C146.79 16.9011 143.419 13.9257 138.586 14.1439C133.906 14.3533 130.509 17.634 130.568 21.9095H147.079Z" fill="#3D4CDF"/>
<path d="M43.4945 39.1944C41.7049 41.4026 39.4556 43.1699 36.9125 44.3659C34.3694 45.562 31.5974 46.1562 28.801 46.1049C24.0787 46.1049 19.3564 46.1049 14.3113 46.1049V74.0262H0V4.51974H2.25923C10.7526 4.51974 19.2459 4.58954 27.6798 4.51974C34.6444 4.41503 40.301 6.9803 44.5986 12.6518C42.1016 17.4508 40.1906 22.4591 40.836 27.9212C41.2777 31.7429 42.5772 35.4425 43.4945 39.1944ZM14.3028 32.5544C18.9826 32.5544 23.3482 32.7376 27.6968 32.5021C29.442 32.3878 31.0772 31.5867 32.262 30.2655C33.4469 28.9442 34.0903 27.2045 34.0583 25.4083C34.1521 23.6149 33.5582 21.8552 32.404 20.5063C31.2497 19.1574 29.627 18.3268 27.8837 18.1924C25.3357 17.9307 22.7877 18.0615 20.2821 18.0441C18.3456 18.0441 16.4007 18.0441 14.3368 18.0441V32.5544H14.3028Z" fill="#3D4CDF"/>
<path d="M66.4943 0C61.3137 0 56.2495 1.57819 51.942 4.535C47.6345 7.49181 44.2772 11.6944 42.2947 16.6114C40.3121 21.5284 39.7934 26.9389 40.8041 32.1588C41.8148 37.3787 44.3095 42.1734 47.9727 45.9367C51.6359 49.7 56.3032 52.2628 61.3842 53.3011C66.4652 54.3394 71.7319 53.8065 76.5181 51.7699C81.3044 49.7332 85.3952 46.2842 88.2734 41.859C91.1516 37.4338 92.6878 32.2312 92.6878 26.9091C92.6878 23.3753 92.0103 19.8762 90.6939 16.6114C89.3776 13.3467 87.4482 10.3802 85.0159 7.88149C82.5836 5.38275 79.6961 3.40064 76.5181 2.04833C73.3402 0.696024 69.9341 0 66.4943 0ZM66.902 39.2642C64.5905 39.2642 62.331 38.5601 60.4091 37.2408C58.4872 35.9216 56.9893 34.0465 56.1047 31.8527C55.2202 29.6588 54.9887 27.2448 55.4397 24.9158C55.8906 22.5869 57.0037 20.4476 58.6381 18.7685C60.2726 17.0894 62.355 15.9459 64.622 15.4827C66.889 15.0194 69.2388 15.2572 71.3743 16.1659C73.5098 17.0746 75.3351 18.6135 76.6192 20.5879C77.9034 22.5623 78.5888 24.8835 78.5888 27.2581C78.5888 30.4423 77.3575 33.4961 75.1658 35.7477C72.9741 37.9993 70.0015 39.2642 66.902 39.2642Z" fill="#FF66C4"/>
<path d="M87.8809 42.4665L93.8857 39.0374L94.769 39.6656L88.0847 43.7753L87.8809 42.4665Z" fill="#3D4CDF"/>
<path d="M147.547 33.9505H145.848C145.848 33.9505 145.449 34.5002 145.126 34.8841H147.173L147.547 33.9505Z" fill="#3D4CDF"/>
</g>
<defs>
<clipPath id="clip0_2002_11663">
<rect width="161" height="74" fill="white"/>
</clipPath>
</defs>
</svg>
