<svg width="94" height="94" viewBox="0 0 94 94" fill="none" xmlns="http://www.w3.org/2000/svg">
<rect x="19.6704" width="76" height="76" rx="38" transform="rotate(15 19.6704 0)" fill="#FF66C4"/>
<g clip-path="url(#clip0_2002_12070)">
<path d="M39.2715 32.0298C38.7556 32.506 38.1418 32.8637 37.473 33.0776C36.8043 33.2915 36.0969 33.3564 35.4003 33.2679C34.6065 33.1717 33.8166 33.0851 33.024 33.0086C30.8106 32.793 28.8035 34.2546 28.2282 36.4018L23.6849 53.3578C23.3631 54.5586 23.5315 55.8381 24.1531 56.9148C24.7747 57.9914 25.7986 58.777 26.9994 59.0988L57.1846 67.1869C58.3854 67.5086 59.6649 67.3402 60.7416 66.7186C61.8182 66.097 62.6038 65.0732 62.9256 63.8723L67.4689 46.9163C68.0443 44.7691 67.0349 42.4993 65.0122 41.5799C64.2869 41.2499 63.5576 40.9287 62.8246 40.6162C62.1776 40.3444 61.5978 39.9344 61.126 39.4149C60.6542 38.8954 60.3017 38.279 60.0932 37.6089L59.1487 34.5174C58.9389 33.8144 58.5627 33.1722 58.0522 32.6454C57.5416 32.1185 56.9116 31.7224 56.2155 31.4906C52.7589 30.3625 49.2443 29.4208 45.6869 28.6694C44.9681 28.5221 44.2245 28.5502 43.5188 28.7512C42.8132 28.9522 42.1664 29.3202 41.6332 29.8242L39.2715 32.0298Z" stroke="white" stroke-width="3" stroke-linecap="round" stroke-linejoin="round"/>
<path d="M55.1915 50.4766C54.548 52.8783 52.9768 54.9259 50.8235 56.1691C48.6702 57.4123 46.1112 57.7492 43.7095 57.1057C41.3079 56.4622 39.2602 54.8909 38.017 52.7377C36.7738 50.5844 36.4369 48.0254 37.0804 45.6237C37.7239 43.222 39.2952 41.1744 41.4485 39.9312C43.6018 38.688 46.1607 38.3511 48.5624 38.9946C50.9641 39.6381 53.0117 41.2094 54.2549 43.3627C55.4982 45.5159 55.835 48.0749 55.1915 50.4766ZM60.9325 47.162L60.9486 47.1663L60.9443 47.1824L60.9282 47.1781L60.9325 47.162Z" stroke="white" stroke-width="3" stroke-linecap="round" stroke-linejoin="round"/>
</g>
<defs>
<clipPath id="clip0_2002_12070">
<rect width="50" height="50" fill="white" transform="translate(28.8628 15.9217) rotate(15)"/>
</clipPath>
</defs>
</svg>
