<svg width="79" height="79" viewBox="0 0 79 79" fill="none" xmlns="http://www.w3.org/2000/svg">
<path d="M37.6924 35.4748C38.7718 35.7495 39.6978 36.4417 40.2668 37.3993C40.8358 38.3568 41.0011 39.5012 40.7264 40.5807C40.4516 41.6602 39.7594 42.5864 38.8019 43.1555C37.8445 43.7246 36.7002 43.89 35.6208 43.6153C33.4621 43.0659 31.61 41.6814 30.4721 39.7663C29.3341 37.8512 29.0035 35.5624 29.553 33.4034C30.1024 31.2444 31.4869 29.3921 33.4018 28.2539C35.3168 27.1157 37.6053 26.7849 39.7641 27.3342C43.0022 28.1583 45.7802 30.2351 47.4871 33.1077C49.1941 35.9804 49.69 39.4136 48.8658 42.6521C48.0417 45.8906 45.965 48.6691 43.0925 50.3764C40.2201 52.0837 36.7873 52.5799 33.5492 51.7558C29.2317 50.6571 25.5276 47.8881 23.2517 44.0579C20.9759 40.2277 20.3146 35.65 21.4135 31.332C22.5123 27.014 25.2813 23.3093 29.1112 21.033C32.9411 18.7566 37.5183 18.095 41.8357 19.1937C47.2325 20.5671 51.8626 24.0284 54.7075 28.8162C57.5524 33.6039 58.3789 39.3259 57.0053 44.7235C55.6317 50.121 52.1706 54.7518 47.3832 57.5973C42.5958 60.4428 36.8744 61.2698 31.4775 59.8964C26.1719 58.5542 21.4519 55.5111 18.0391 51.2325C17.6586 50.8037 17.37 50.3014 17.191 49.7568C17.0119 49.2121 16.9463 48.6365 16.9981 48.0655C17.0499 47.4945 17.2181 46.9402 17.4923 46.4366C17.7664 45.933 18.1408 45.491 18.5922 45.1376C19.0437 44.7842 19.5627 44.527 20.1174 44.3818C20.672 44.2366 21.2504 44.2066 21.8171 44.2935C22.3838 44.3803 22.9266 44.5824 23.4122 44.887C23.8979 45.1917 24.316 45.5926 24.6408 46.065" stroke="white" stroke-width="2.5" stroke-linecap="round" stroke-linejoin="round"/>
</svg>
