<svg width="44" height="44" viewBox="0 0 44 44" fill="none" xmlns="http://www.w3.org/2000/svg">
<rect width="44" height="44" rx="4" fill="#8A95FF"/>
<path d="M31 21.9999C31.552 21.9999 32.005 21.5509 31.95 21.0019C31.7195 18.7061 30.7021 16.5606 29.0703 14.9292C27.4386 13.2979 25.2929 12.281 22.997 12.0509C22.447 11.9959 21.999 12.4489 21.999 13.0009V21.0009C21.999 21.2661 22.1044 21.5205 22.2919 21.708C22.4795 21.8956 22.7338 22.0009 22.999 22.0009L31 21.9999Z" stroke="white" stroke-width="2" stroke-linecap="round" stroke-linejoin="round"/>
<path d="M31.2099 25.8901C30.5737 27.3946 29.5787 28.7203 28.3118 29.7514C27.0449 30.7825 25.5447 31.4875 23.9424 31.8049C22.34 32.1222 20.6843 32.0422 19.1201 31.5719C17.5558 31.1015 16.1305 30.2551 14.9689 29.1067C13.8073 27.9583 12.9447 26.5428 12.4565 24.984C11.9684 23.4252 11.8695 21.7706 12.1685 20.1647C12.4675 18.5589 13.1554 17.0507 14.172 15.7721C15.1885 14.4935 16.5028 13.4834 17.9999 12.8301" stroke="white" stroke-width="2" stroke-linecap="round" stroke-linejoin="round"/>
</svg>
