<svg width="44" height="44" viewBox="0 0 44 44" fill="none" xmlns="http://www.w3.org/2000/svg">
<rect width="44" height="44" rx="4" fill="#E41500"/>
<path d="M26.0201 22L31.5001 25.13C31.654 25.2172 31.782 25.3437 31.8711 25.4965C31.9601 25.6494 32.0071 25.8231 32.0071 26C32.0071 26.1769 31.9601 26.3506 31.8711 26.5035C31.782 26.6563 31.654 26.7828 31.5001 26.87L23.0001 31.74C22.6961 31.9155 22.3512 32.0079 22.0001 32.0079C21.649 32.0079 21.3042 31.9155 21.0001 31.74L12.5001 26.87C12.3462 26.7828 12.2182 26.6563 12.1291 26.5035C12.0401 26.3506 11.9932 26.1769 11.9932 26C11.9932 25.8231 12.0401 25.6494 12.1291 25.4965C12.2182 25.3437 12.3462 25.2172 12.5001 25.13L17.9801 22" stroke="white" stroke-width="2" stroke-linecap="round" stroke-linejoin="round"/>
<path d="M23.0001 23.74C22.6961 23.9156 22.3512 24.008 22.0001 24.008C21.649 24.008 21.3042 23.9156 21.0001 23.74L12.5001 18.87C12.3462 18.7828 12.2182 18.6563 12.1291 18.5035C12.0401 18.3506 11.9932 18.1769 11.9932 18C11.9932 17.8231 12.0401 17.6494 12.1291 17.4966C12.2182 17.3437 12.3462 17.2172 12.5001 17.13L21.0001 12.26C21.3042 12.0845 21.649 11.9921 22.0001 11.9921C22.3512 11.9921 22.6961 12.0845 23.0001 12.26L31.5001 17.13C31.654 17.2172 31.782 17.3437 31.8711 17.4966C31.9601 17.6494 32.0071 17.8231 32.0071 18C32.0071 18.1769 31.9601 18.3506 31.8711 18.5035C31.782 18.6563 31.654 18.7828 31.5001 18.87L23.0001 23.74Z" stroke="white" stroke-width="2" stroke-linecap="round" stroke-linejoin="round"/>
</svg>
