<svg width="44" height="44" viewBox="0 0 44 44" fill="none" xmlns="http://www.w3.org/2000/svg">
<rect width="44" height="44" rx="4" fill="#8A95FF"/>
<path d="M24.7001 16.3002C24.5169 16.4872 24.4142 16.7385 24.4142 17.0002C24.4142 17.262 24.5169 17.5133 24.7001 17.7002L26.3001 19.3002C26.487 19.4835 26.7383 19.5861 27.0001 19.5861C27.2619 19.5861 27.5132 19.4835 27.7001 19.3002L31.4701 15.5302C31.9729 16.6414 32.1252 17.8795 31.9066 19.0794C31.6879 20.2793 31.1088 21.3841 30.2464 22.2465C29.3839 23.1089 28.2792 23.6881 27.0792 23.9067C25.8793 24.1253 24.6413 23.9731 23.5301 23.4702L16.6201 30.3802C16.2223 30.778 15.6827 31.0015 15.1201 31.0015C14.5575 31.0015 14.0179 30.778 13.6201 30.3802C13.2223 29.9824 12.9988 29.4428 12.9988 28.8802C12.9988 28.3176 13.2223 27.778 13.6201 27.3802L20.5301 20.4702C20.0273 19.359 19.875 18.121 20.0936 16.9211C20.3123 15.7212 20.8914 14.6164 21.7538 13.7539C22.6163 12.8915 23.721 12.3124 24.921 12.0938C26.1209 11.8751 27.3589 12.0274 28.4701 12.5302L24.7101 16.2902L24.7001 16.3002Z" stroke="white" stroke-width="2" stroke-linecap="round" stroke-linejoin="round"/>
</svg>
