<svg width="44" height="44" viewBox="0 0 44 44" fill="none" xmlns="http://www.w3.org/2000/svg">
<rect width="44" height="44" rx="4" fill="#2E39B4"/>
<path d="M14 20C13.1844 21.3951 12.8541 23.0211 13.0607 24.6238C13.2673 26.2265 13.9991 27.7155 15.1418 28.8582C16.2845 30.0009 17.7735 30.7327 19.3762 30.9393C20.9789 31.1459 22.6049 30.8156 24 30L14 20Z" stroke="white" stroke-width="2" stroke-linecap="round" stroke-linejoin="round"/>
<path d="M19 25L22 22" stroke="white" stroke-width="2" stroke-linecap="round" stroke-linejoin="round"/>
<path d="M27 23C27 21.4087 26.3679 19.8826 25.2426 18.7574C24.1174 17.6321 22.5913 17 21 17" stroke="white" stroke-width="2" stroke-linecap="round" stroke-linejoin="round"/>
<path d="M31 23C31 20.3478 29.9464 17.8043 28.0711 15.9289C26.1957 14.0536 23.6522 13 21 13" stroke="white" stroke-width="2" stroke-linecap="round" stroke-linejoin="round"/>
</svg>
